HIERARCHY
ROOT SpineBase
{
  OFFSET 0.000000 0.000000 0.000000
  CHANNELS 6 Xposition Yposition Zposition Zrotation Xrotation Yrotation
  JOINT SpineMid
  {
    OFFSET 0.000000 29.746072 0.000000
    CHANNELS 3 Zrotation Xrotation Yrotation
    JOINT SpineShoulder
    {
      OFFSET -0.189629 22.155926 -0.580051
      CHANNELS 3 Zrotation Xrotation Yrotation
      JOINT Neck
      {
        OFFSET -0.197935 7.373543 -0.471682
        CHANNELS 3 Zrotation Xrotation Yrotation
        JOINT Head
        {
          OFFSET 5.355387 12.562471 -1.805405
          CHANNELS 3 Zrotation Xrotation Yrotation
          End Site
          {
            OFFSET 0 0 0
          }
        }
      }
      JOINT ShoulderLeft
      {
        OFFSET -15.806799 -1.649899 -4.847041
        CHANNELS 3 Zrotation Xrotation Yrotation
        JOINT ElbowLeft
        {
          OFFSET -6.511950 -20.533086 -2.695260
          CHANNELS 3 Zrotation Xrotation Yrotation
          JOINT WristLeft
          {
            OFFSET 0.283076 -20.815822 -6.082212
            CHANNELS 3 Zrotation Xrotation Yrotation
            JOINT HandLeft
            {
              OFFSET 0.032304 -5.569008 -1.324389
              CHANNELS 3 Zrotation Xrotation Yrotation
              JOINT HandTipLeft
              {
                OFFSET 1.077772 -6.276368 -2.083087
                CHANNELS 3 Zrotation Xrotation Yrotation
                End Site
                {
                  OFFSET 0 0 0
                }
              }
              JOINT ThumbLeft
              {
                OFFSET 2.589091 1.915494 1.091902
                CHANNELS 3 Zrotation Xrotation Yrotation
                End Site
                {
                  OFFSET 0 0 0
                }
              }
            }
          }
        }
      }
      JOINT ShoulderRight
      {
        OFFSET 16.190287 -6.655863 4.588954
        CHANNELS 3 Zrotation Xrotation Yrotation
        JOINT ElbowRight
        {
          OFFSET 0.344761 -20.970181 3.069878
          CHANNELS 3 Zrotation Xrotation Yrotation
          JOINT WristRight
          {
            OFFSET -4.321744 13.261445 7.387978
            CHANNELS 3 Zrotation Xrotation Yrotation
            JOINT HandRight
            {
              OFFSET 1.200362 -0.589354 -11.154175
              CHANNELS 3 Zrotation Xrotation Yrotation
              JOINT HandTipRight
              {
                OFFSET 0.040641 1.630591 -1.032458
                CHANNELS 3 Zrotation Xrotation Yrotation
                End Site
                {
                  OFFSET 0 0 0
                }
              }
              JOINT ThumbRight
              {
                OFFSET -0.349716 1.652145 -1.176725
                CHANNELS 3 Zrotation Xrotation Yrotation
                End Site
                {
                  OFFSET 0 0 0
                }
              }
            }
          }
        }
      }
    }
  }
  JOINT HipLeft
  {
    OFFSET -7.821344 1.475957 -4.650494
    CHANNELS 3 Zrotation Xrotation Yrotation
    JOINT KneeLeft
    {
      OFFSET -7.207866 -27.981084 -0.931769
      CHANNELS 3 Zrotation Xrotation Yrotation
      JOINT AnkleLeft
      {
        OFFSET -3.027586 -35.264551 10.084175
        CHANNELS 3 Zrotation Xrotation Yrotation
        JOINT FootLeft
        {
          OFFSET 1.551917 -1.957156 -10.320668
          CHANNELS 3 Zrotation Xrotation Yrotation
          End Site
          {
            OFFSET 0 0 0
          }
        }
      }
    }
  }
  JOINT HipRight
  {
    OFFSET 6.111381 0.650530 -1.754988
    CHANNELS 3 Zrotation Xrotation Yrotation
    JOINT KneeRight
    {
      OFFSET -2.847079 -26.852469 -1.103077
      CHANNELS 3 Zrotation Xrotation Yrotation
      JOINT AnkleRight
      {
        OFFSET -2.780765 -36.533940 5.326816
        CHANNELS 3 Zrotation Xrotation Yrotation
        JOINT FootRight
        {
          OFFSET 1.872391 -0.775624 -11.315247
          CHANNELS 3 Zrotation Xrotation Yrotation
          End Site
          {
            OFFSET 0 0 0
          }
        }
      }
    }
  }
}
MOTION
Frames: 10
Frame Time: 0.033333
86.766750 65.853725 330.164584 -0.000000 0.000000 -11.740127 0.000000 0.000000 11.740127 -0.000000 0.000000 0.000000 -0.000000 0.000000 0.000000 0.000000 0.000000 0.000000 -0.000000 0.000000 0.000000 -0.000000 0.000000 0.000000 -0.000000 0.000000 0.000000 -0.000000 0.000000 0.000000 0.000000 0.000000 0.000000 0.000000 0.000000 0.000000 -0.000000 0.000000 0.000000 -0.000000 0.000000 0.000000 -0.000000 0.000000 0.000000 -0.000000 0.000000 0.000000 0.000000 0.000000 0.000000 0.000000 0.000000 0.000000 0.000000 0.000000 11.740127 -0.000000 0.000000 0.000000 -0.000000 0.000000 0.000000 0.000000 0.000000 0.000000 0.000000 0.000000 11.740127 -0.000000 0.000000 0.000000 -0.000000 0.000000 0.000000 0.000000 0.000000 0.000000
86.622240 65.918850 329.950011 -0.067997 0.316330 -11.440445 0.129391 -0.296557 11.440967 -0.000000 0.000000 0.000000 -0.000000 0.000000 0.000000 0.000000 0.000000 0.000000 -0.000000 0.000000 0.000000 -0.000000 0.000000 0.000000 1.187084 -0.029049 -0.282183 -0.458537 -1.674013 -0.239928 0.000000 0.000000 0.000000 0.000000 0.000000 0.000000 -0.000000 0.000000 0.000000 -0.661695 -1.978860 -0.291090 0.774644 3.116249 0.171229 -1.572602 -0.774151 -0.859786 0.000000 0.000000 0.000000 0.000000 0.000000 0.000000 0.129391 -0.296557 11.440967 -0.000000 0.000000 0.000000 -0.000000 0.000000 0.000000 0.000000 0.000000 0.000000 0.129391 -0.296557 11.440967 -0.000000 0.000000 0.000000 -1.475636 -9.038865 2.462085 0.000000 0.000000 0.000000
86.482239 65.978980 329.753966 -0.125350 0.598431 -11.149032 0.238707 -0.562897 11.150860 -0.000000 0.000000 0.000000 -0.000000 0.000000 0.000000 0.000000 0.000000 0.000000 -0.000000 0.000000 0.000000 -0.000000 0.000000 0.000000 2.082305 -0.109935 -0.493954 -0.785533 -3.063813 -0.441069 0.000000 0.000000 0.000000 0.000000 0.000000 0.000000 -0.000000 0.000000 0.000000 -1.223551 -3.632089 -0.552863 1.397098 5.646580 0.367729 -2.151809 -1.780179 -1.205663 0.000000 0.000000 0.000000 0.000000 0.000000 0.000000 0.238707 -0.562897 11.150860 -0.000000 0.000000 0.000000 -0.000000 0.000000 0.000000 0.000000 0.000000 0.000000 1.034449 -1.419495 11.244874 -0.613501 0.995198 -0.074920 -2.535083 -17.541346 4.660351 0.000000 0.000000 0.000000
86.346747 66.034116 329.576449 -0.171987 0.846018 -10.865372 0.328406 -0.798424 10.868930 -0.000000 0.000000 0.000000 -0.000000 0.000000 0.000000 0.000000 0.000000 0.000000 -0.000000 0.000000 0.000000 -0.297480 0.837318 0.100272 3.076347 -1.076751 -0.712368 -1.095008 -4.133402 -0.578665 0.000000 0.000000 0.000000 0.000000 0.000000 0.000000 -0.034785 -0.978218 -0.021445 -1.643366 -3.984194 -0.726474 1.872955 7.576246 0.606783 -2.083445 -2.876820 -1.225728 0.000000 0.000000 0.000000 0.000000 0.000000 0.000000 1.386307 -1.222703 11.014714 -0.957329 0.618359 -0.121959 -0.000000 0.000000 0.000000 0.000000 0.000000 0.000000 1.456213 -2.010753 11.009446 -1.578436 0.762902 -0.142088 -2.420222 -23.688962 6.513490 0.000000 0.000000 0.000000
86.215764 66.084258 329.417459 -0.207846 1.058846 -10.588960 0.398934 -1.002605 10.594371 -0.000000 0.000000 0.000000 -0.000000 0.000000 0.000000 0.000000 0.000000 0.000000 -0.000000 0.000000 0.000000 -0.274971 1.055400 0.096972 3.612016 -1.463368 -0.815513 -1.458319 -4.849740 -0.637310 0.000000 0.000000 0.000000 0.000000 0.000000 0.000000 0.034456 -1.152321 -0.013535 -2.063057 -4.819354 -0.898340 2.206974 8.898391 0.900131 -1.470673 -4.036729 -0.966254 0.000000 0.000000 0.000000 0.000000 0.000000 0.000000 1.757242 -1.541519 10.784721 -1.233439 0.783089 -0.151765 -0.000000 0.000000 0.000000 0.000000 0.000000 0.000000 1.815660 -2.520985 10.778381 -1.920727 0.968559 -0.162230 -2.572951 -27.831726 7.720262 0.000000 0.000000 0.000000
86.089291 66.129405 329.276998 -0.232878 1.236707 -10.319302 0.450726 -1.174965 10.326438 -0.000000 0.000000 0.000000 0.889946 -0.023135 0.138396 0.000000 0.000000 0.000000 -0.000000 0.000000 0.000000 -0.191490 1.243081 0.074699 3.984769 -1.864755 -0.874709 -1.921307 -5.184713 -0.606013 0.000000 0.000000 0.000000 0.000000 0.000000 0.000000 0.146236 -1.249766 0.002451 -2.417760 -5.414588 -1.029272 2.403899 9.612376 1.253943 -0.288541 -5.305817 -0.395175 0.000000 0.000000 0.000000 0.000000 0.000000 0.000000 2.082491 -1.813884 10.557451 -1.487022 0.926278 -0.176433 -0.000000 0.000000 0.000000 0.000000 0.000000 0.000000 2.113731 -2.948906 10.549250 -2.166563 1.152525 -0.171751 -2.574784 -29.170410 8.243500 0.000000 0.000000 0.000000
85.942815 66.181222 329.151193 -0.241070 1.391323 -10.049310 0.270558 -0.462270 10.060688 0.055217 -0.888933 -0.005733 1.157083 -0.223214 0.264770 0.000000 0.000000 0.000000 -0.000000 0.000000 0.000000 0.091858 1.351889 -0.009506 4.093073 -2.580368 -0.853205 -2.643313 -4.975276 -0.464620 0.000000 0.000000 0.000000 0.000000 0.000000 0.000000 0.250531 -1.108309 0.020847 -2.501455 -5.495291 -1.042005 2.309625 9.302353 1.919750 1.379694 -5.806603 0.114532 0.000000 0.000000 0.000000 0.000000 0.000000 0.000000 2.405526 -2.040146 10.323807 -1.766371 1.044510 -0.193317 -0.110746 0.277059 0.794427 0.000000 0.000000 0.000000 2.407652 -3.282052 10.311713 -2.440739 1.189959 -0.166531 -2.436865 -27.494339 7.982875 0.000000 0.000000 0.000000
85.825730 66.211359 329.056378 -0.224523 1.485625 -9.800131 0.245115 -0.442668 9.812307 -0.230606 -0.181307 -0.005881 1.719499 -1.232286 0.404646 0.000000 0.000000 0.000000 0.288866 -0.826362 -0.001621 0.366452 1.469196 -0.091446 4.369595 -3.081952 -0.867232 -4.066608 -3.676006 0.108230 0.000000 0.000000 0.000000 0.000000 0.000000 0.000000 0.637657 -1.879925 0.040289 -2.524419 -5.347004 -1.026029 2.187700 8.394070 1.799023 4.484182 -10.288143 2.559787 0.000000 0.000000 0.000000 0.000000 0.000000 0.000000 2.602103 -2.218895 10.107424 -1.955558 1.152657 -0.211133 -0.134961 0.325752 0.956906 0.000000 0.000000 0.000000 2.549294 -3.507978 10.084613 -2.508319 1.300629 -0.159780 -2.203008 -22.962014 6.933796 0.000000 0.000000 0.000000
85.728718 66.238741 328.973525 -0.209812 1.553390 -9.585692 0.214080 -0.417714 9.598096 -0.260684 -0.188768 -0.007159 2.115814 -1.554644 0.569495 0.000000 0.000000 0.000000 0.328890 -0.917058 -0.000946 0.553627 1.586135 -0.147253 4.268246 -3.227332 -0.822772 -4.710510 -3.475162 0.339562 0.000000 0.000000 0.000000 0.000000 0.000000 0.000000 1.007814 -1.859582 0.099244 -2.851677 -5.440525 -1.076819 2.157043 8.242624 1.968811 8.670075 -11.937694 5.474454 0.000000 0.000000 0.000000 0.000000 0.000000 0.000000 2.742695 -2.350625 9.917323 -2.095841 1.231292 -0.223733 -0.161925 0.366175 1.126989 0.000000 0.000000 0.000000 2.625906 -3.715920 9.891575 -2.398547 1.605349 -0.158079 -1.753759 -16.011006 5.217197 0.000000 0.000000 0.000000
85.641495 66.252774 328.903896 -0.209349 1.588545 -9.387338 0.188324 -0.403802 9.399368 -0.285880 -0.199056 -0.009354 2.539384 -1.599840 0.637956 0.000000 0.000000 0.000000 0.375249 -0.960330 0.001369 0.814890 1.719838 -0.225937 3.987490 -3.618032 -0.727913 -5.084321 -2.633414 0.574416 0.000000 0.000000 0.000000 0.000000 0.000000 0.000000 1.514859 -1.900706 0.180901 -3.296935 -5.382444 -1.131595 1.936840 5.404835 1.263817 16.701491 -13.407769 11.435924 0.000000 0.000000 0.000000 0.000000 0.000000 0.000000 2.869621 -2.422586 9.734275 -2.218764 1.280827 -0.230021 0.243300 2.398752 0.552353 0.000000 0.000000 0.000000 2.662848 -3.809462 9.702139 -2.184088 1.732983 -0.138501 -0.946986 -7.289126 2.978622 0.000000 0.000000 0.000000
